M48
METRIC,LZ,000.000
;FILE_FORMAT=3:3
;TYPE=PLATED
;Layer: PTH_Through_Via
;EasyEDA v6.5.40, 2025-03-18 22:52:05
;b39658bcca46432a934d06cf3c5ad792,51c3989a86a440af9e0a32d2c4c87c08,10
;Gerber Generator version 0.2
;Holesize 1 = 0.306 mm
T01C0.306
%
G05
G90
T01
X034336Y066286
X031222Y046352
X046364Y049379
X016338Y036152
X049952Y079922
X042138Y084769
X028583Y059465
X044598Y079956
X041701Y072915
X044920Y067090
X046754Y062473
X047434Y056028
X072126Y086107
X072576Y079099
X071567Y074093
X072099Y068308
X074309Y062376
X072153Y056443
X094808Y085980
X091583Y081457
X102191Y036571
X100324Y074150
X095154Y068236
X091142Y063202
X095286Y055478
X115974Y085980
X115443Y080725
X115669Y074150
X115967Y068236
X115966Y062321
X115964Y056407
X136793Y061253
X136793Y067141
X129556Y071558
X135161Y080065
X124990Y086861
X049898Y080837
X073224Y069546
X097006Y072329
X116928Y070833
X068034Y065421
X072632Y064132
X032097Y075372
X057782Y076832
X041239Y079714
X039853Y057391
X035147Y074699
X032157Y052515
X074345Y050510
X096214Y049397
X118110Y050492
X136793Y055337
X038045Y078315
X033560Y042891
M30
