G04 Layer: BottomSolderMaskLayer*
G04 EasyEDA v6.5.40, 2025-03-18 22:52:05*
G04 b39658bcca46432a934d06cf3c5ad792,51c3989a86a440af9e0a32d2c4c87c08,10*
G04 Gerber Generator version 0.2*
G04 Scale: 100 percent, Rotated: No, Reflected: No *
G04 Dimensions in millimeters *
G04 leading zeros omitted , absolute positions ,4 integer and 5 decimal *
%FSLAX45Y45*%
%MOMM*%

%AMMACRO1*1,1,$1,$2,$3*1,1,$1,$4,$5*1,1,$1,0-$2,0-$3*1,1,$1,0-$4,0-$5*20,1,$1,$2,$3,$4,$5,0*20,1,$1,$4,$5,0-$2,0-$3,0*20,1,$1,0-$2,0-$3,0-$4,0-$5,0*20,1,$1,0-$4,0-$5,$2,$3,0*4,1,4,$2,$3,$4,$5,0-$2,0-$3,0-$4,0-$5,$2,$3,0*%
%ADD10MACRO1,0.1016X-0.85X0.85X0.85X0.85*%
%ADD11C,1.8016*%
%ADD12MACRO1,0.1016X0.889X-0.9X-0.889X-0.9*%
%ADD13C,1.9016*%

%LPD*%
D10*
G01*
X8166100Y9156700D03*
D11*
G01*
X8420100Y9156700D03*
G01*
X8674100Y9156700D03*
G01*
X8928100Y9156700D03*
D10*
G01*
X6743700Y9156700D03*
D11*
G01*
X6997700Y9156700D03*
G01*
X7251700Y9156700D03*
G01*
X7505700Y9156700D03*
D10*
G01*
X5346700Y9156700D03*
D11*
G01*
X5600700Y9156700D03*
G01*
X5854700Y9156700D03*
G01*
X6108700Y9156700D03*
D12*
G01*
X6029325Y3670300D03*
D13*
G01*
X6029325Y3924300D03*
G01*
X6283325Y3670300D03*
G01*
X6283325Y3924300D03*
G01*
X6537325Y3670300D03*
G01*
X6537325Y3924300D03*
G01*
X6791325Y3670300D03*
G01*
X6791325Y3924300D03*
G01*
X7045325Y3670300D03*
G01*
X7045325Y3924300D03*
G01*
X7299325Y3670300D03*
G01*
X7299325Y3924300D03*
G01*
X7553325Y3670300D03*
G01*
X7553325Y3924300D03*
G01*
X7807325Y3670300D03*
G01*
X7807325Y3924300D03*
D12*
G01*
X8223250Y3670300D03*
D13*
G01*
X8223250Y3924300D03*
G01*
X8477250Y3670300D03*
G01*
X8477250Y3924300D03*
G01*
X8731250Y3670300D03*
G01*
X8731250Y3924300D03*
G01*
X8985250Y3670300D03*
G01*
X8985250Y3924300D03*
G01*
X9239250Y3670300D03*
G01*
X9239250Y3924300D03*
G01*
X9493250Y3670300D03*
G01*
X9493250Y3924300D03*
G01*
X9747250Y3670300D03*
G01*
X9747250Y3924300D03*
G01*
X10001250Y3670300D03*
G01*
X10001250Y3924300D03*
D12*
G01*
X10417175Y3670300D03*
D13*
G01*
X10417175Y3924300D03*
G01*
X10671175Y3670300D03*
G01*
X10671175Y3924300D03*
G01*
X10925175Y3670300D03*
G01*
X10925175Y3924300D03*
G01*
X11179175Y3670300D03*
G01*
X11179175Y3924300D03*
G01*
X11433175Y3670300D03*
G01*
X11433175Y3924300D03*
G01*
X11687175Y3670300D03*
G01*
X11687175Y3924300D03*
G01*
X11941175Y3670300D03*
G01*
X11941175Y3924300D03*
G01*
X12195175Y3670300D03*
G01*
X12195175Y3924300D03*
D12*
G01*
X12611100Y3670300D03*
D13*
G01*
X12611100Y3924300D03*
G01*
X12865100Y3670300D03*
G01*
X12865100Y3924300D03*
G01*
X13119100Y3670300D03*
G01*
X13119100Y3924300D03*
G01*
X13373100Y3670300D03*
G01*
X13373100Y3924300D03*
G01*
X13627100Y3670300D03*
G01*
X13627100Y3924300D03*
G01*
X13881100Y3670300D03*
G01*
X13881100Y3924300D03*
G01*
X14135100Y3670300D03*
G01*
X14135100Y3924300D03*
G01*
X14389100Y3670300D03*
G01*
X14389100Y3924300D03*
D12*
G01*
X3835400Y3670300D03*
D13*
G01*
X3835400Y3924300D03*
G01*
X4089400Y3670300D03*
G01*
X4089400Y3924300D03*
G01*
X4343400Y3670300D03*
G01*
X4343400Y3924300D03*
G01*
X4597400Y3670300D03*
G01*
X4597400Y3924300D03*
G01*
X4851400Y3670300D03*
G01*
X4851400Y3924300D03*
G01*
X5105400Y3670300D03*
G01*
X5105400Y3924300D03*
G01*
X5359400Y3670300D03*
G01*
X5359400Y3924300D03*
G01*
X5613400Y3670300D03*
G01*
X5613400Y3924300D03*
M02*
