G04 Layer: TopPasteMaskLayer*
G04 EasyEDA v6.5.40, 2025-03-18 22:52:05*
G04 b39658bcca46432a934d06cf3c5ad792,51c3989a86a440af9e0a32d2c4c87c08,10*
G04 Gerber Generator version 0.2*
G04 Scale: 100 percent, Rotated: No, Reflected: No *
G04 Dimensions in millimeters *
G04 leading zeros omitted , absolute positions ,4 integer and 5 decimal *
%FSLAX45Y45*%
%MOMM*%

%ADD10R,1.2000X1.2000*%
%ADD11R,1.5000X1.2000*%

%LPD*%
D10*
G01*
X4566843Y8585276D03*
G01*
X4246829Y8585276D03*
G01*
X4566843Y7995622D03*
G01*
X4246829Y7995622D03*
G01*
X4566843Y7405969D03*
G01*
X4246829Y7405969D03*
G01*
X4566843Y6816316D03*
G01*
X4246829Y6816316D03*
G01*
X4566843Y6226662D03*
G01*
X4246829Y6226662D03*
G01*
X4566843Y5637009D03*
G01*
X4246829Y5637009D03*
G01*
X4566843Y5047355D03*
G01*
X4246829Y5047355D03*
G01*
X4554207Y4457700D03*
G01*
X4234192Y4457700D03*
G01*
X7322804Y8610676D03*
G01*
X7002790Y8610676D03*
G01*
X7322804Y8017395D03*
G01*
X7002790Y8017395D03*
G01*
X7322804Y7424107D03*
G01*
X7002790Y7424107D03*
G01*
X7322804Y6830827D03*
G01*
X7002790Y6830827D03*
G01*
X7322804Y6237546D03*
G01*
X7002790Y6237546D03*
G01*
X7322804Y5644263D03*
G01*
X7002790Y5644263D03*
G01*
X7322804Y5050983D03*
G01*
X7002790Y5050983D03*
G01*
X7322807Y4457700D03*
G01*
X7002792Y4457700D03*
G01*
X9621443Y8597976D03*
G01*
X9301429Y8597976D03*
G01*
X9621443Y8006509D03*
G01*
X9301429Y8006509D03*
G01*
X9621443Y7415039D03*
G01*
X9301429Y7415039D03*
G01*
X9621443Y6823572D03*
G01*
X9301429Y6823572D03*
G01*
X9621443Y6232105D03*
G01*
X9301429Y6232105D03*
G01*
X9621443Y5640638D03*
G01*
X9301429Y5640638D03*
G01*
X9621443Y5049166D03*
G01*
X9301429Y5049166D03*
G01*
X9621446Y4457700D03*
G01*
X9301431Y4457700D03*
G01*
X11704274Y8597976D03*
G01*
X11384259Y8597976D03*
G01*
X11704274Y8006506D03*
G01*
X11384259Y8006506D03*
G01*
X11704274Y7415037D03*
G01*
X11384259Y7415037D03*
G01*
X11704274Y6823567D03*
G01*
X11384259Y6823567D03*
G01*
X11704274Y6232103D03*
G01*
X11384259Y6232103D03*
G01*
X11704274Y5640641D03*
G01*
X11384259Y5640641D03*
G01*
X11704274Y5049172D03*
G01*
X11384259Y5049172D03*
G01*
X11704269Y4457700D03*
G01*
X11384254Y4457700D03*
G01*
X13672781Y8597976D03*
G01*
X13352767Y8597976D03*
G01*
X13672781Y8006504D03*
G01*
X13352767Y8006504D03*
G01*
X13672781Y7415039D03*
G01*
X13352767Y7415039D03*
G01*
X13672781Y6823567D03*
G01*
X13352767Y6823567D03*
G01*
X13672781Y6232103D03*
G01*
X13352767Y6232103D03*
G01*
X13672781Y5640631D03*
G01*
X13352767Y5640631D03*
G01*
X13672781Y5049166D03*
G01*
X13352767Y5049166D03*
G01*
X13672776Y4457700D03*
G01*
X13352762Y4457700D03*
D11*
G01*
X3243097Y3619220D03*
G01*
X3243097Y3873220D03*
G01*
X3243097Y4127220D03*
G01*
X3243097Y4381220D03*
G01*
X3243097Y4635220D03*
G01*
X3243097Y4889220D03*
G01*
X3243097Y5143220D03*
G01*
X3243097Y5397220D03*
G01*
X3243097Y5651195D03*
G01*
X3243097Y5905195D03*
G01*
X3243097Y6159195D03*
G01*
X3243097Y6413195D03*
G01*
X3243097Y6667195D03*
G01*
X3243097Y6921195D03*
G01*
X3243097Y7175195D03*
G01*
X3243097Y7429195D03*
G01*
X3243097Y7683195D03*
G01*
X3243097Y7937195D03*
G01*
X3243097Y8191195D03*
G01*
X3243097Y8445195D03*
G01*
X1073099Y8441207D03*
G01*
X1073099Y8187207D03*
G01*
X1073099Y7933207D03*
G01*
X1073099Y7679207D03*
G01*
X1073099Y7425207D03*
G01*
X1073099Y7171207D03*
G01*
X1073099Y6917207D03*
G01*
X1073099Y6663207D03*
G01*
X1073099Y6409207D03*
G01*
X1073099Y6155207D03*
G01*
X1073099Y5901207D03*
G01*
X1073099Y5647207D03*
G01*
X1073099Y5393207D03*
G01*
X1073099Y5139207D03*
G01*
X1073099Y4885207D03*
G01*
X1073099Y4631207D03*
G01*
X1073099Y4377207D03*
G01*
X1073099Y4123207D03*
G01*
X1073099Y3869207D03*
G01*
X1073099Y3615207D03*
M02*
