G04 Layer: BottomLayer*
G04 EasyEDA v6.5.40, 2025-03-18 22:52:05*
G04 b39658bcca46432a934d06cf3c5ad792,51c3989a86a440af9e0a32d2c4c87c08,10*
G04 Gerber Generator version 0.2*
G04 Scale: 100 percent, Rotated: No, Reflected: No *
G04 Dimensions in millimeters *
G04 leading zeros omitted , absolute positions ,4 integer and 5 decimal *
%FSLAX45Y45*%
%MOMM*%

%ADD10C,0.2540*%
%ADD11R,1.7000X1.7000*%
%ADD12C,1.7000*%
%ADD13R,1.7780X1.8000*%
%ADD14C,1.8000*%
%ADD15C,0.6100*%
%ADD16C,0.0130*%

%LPD*%
D10*
X3356002Y4289117D02*
G01*
X3701874Y4634989D01*
X3701874Y7816060D01*
X4500958Y8615144D01*
X5313149Y8615144D01*
X5854702Y9156697D01*
X5359402Y3924297D02*
G01*
X5105402Y3924297D01*
X3835402Y3924297D02*
G01*
X3835402Y7800540D01*
X3804465Y7831477D01*
X13881102Y3670297D02*
G01*
X13754102Y3797297D01*
X13754102Y5458863D01*
X13679274Y5533692D01*
X11941177Y3670297D02*
G01*
X11811027Y3800447D01*
X11811027Y5049161D01*
X9747252Y3670297D02*
G01*
X9621446Y3796103D01*
X9621446Y4939738D01*
X7434506Y5050990D02*
G01*
X7434506Y3789118D01*
X7553327Y3670297D01*
X3514702Y7469934D02*
G01*
X3514702Y5550481D01*
X3215744Y5251523D01*
X4123870Y7971355D02*
G01*
X3985262Y7832747D01*
X3985262Y5739127D01*
X7251702Y9156697D02*
G01*
X5778197Y7683192D01*
X6997702Y9156697D02*
G01*
X6884621Y9043616D01*
X6466537Y9043616D01*
X6228234Y9281919D01*
X4935984Y9281919D01*
X3209673Y7555608D01*
X3209673Y7537193D01*
X7263183Y6413192D02*
G01*
X7268491Y6418501D01*
X7268491Y6899932D01*
X7263183Y6905241D01*
X7263183Y7745778D01*
X8674102Y9156697D01*
X8420102Y9156697D02*
G01*
X6803392Y7539987D01*
X6803392Y6542097D01*
X14389102Y3924297D02*
G01*
X14135102Y3924297D01*
X14135102Y3924297D02*
G01*
X13881102Y3924297D01*
X12611102Y3924297D02*
G01*
X12611102Y6164958D01*
X11692765Y7083295D01*
X12195177Y3924297D02*
G01*
X11941177Y3924297D01*
X10671177Y3924297D02*
G01*
X10535465Y3788585D01*
X10535465Y3559604D01*
X10528073Y3552212D01*
X10241180Y3552212D01*
X10160561Y3632832D01*
X10160561Y6772932D01*
X9700592Y7232901D01*
X10001252Y3924297D02*
G01*
X9747252Y3924297D01*
X8223252Y3924297D02*
G01*
X8223252Y6053833D01*
X7322441Y6954644D01*
X7807327Y3924297D02*
G01*
X7553327Y3924297D01*
X6029327Y3924297D02*
G01*
X6029327Y7044179D01*
X4989807Y8083699D01*
X12494287Y3670297D02*
G01*
X12475187Y3689398D01*
X12475187Y6154696D01*
X11627817Y7002066D01*
X11627817Y7814917D01*
X12498961Y8686060D01*
X12611102Y3670297D02*
G01*
X12494287Y3670297D01*
X12865102Y3670297D02*
G01*
X12992000Y3797195D01*
X12992000Y7109330D01*
X13516129Y7633459D01*
X13516129Y8006509D01*
X12955602Y7155787D02*
G01*
X12732692Y6932876D01*
X12732692Y3618506D01*
X12807012Y3544186D01*
X12992991Y3544186D01*
X13119102Y3670297D01*
X13373102Y3670297D02*
G01*
X13246102Y3797297D01*
X13246102Y6280884D01*
X13679274Y6714055D01*
X13627102Y3670297D02*
G01*
X13500102Y3797297D01*
X13500102Y5946162D01*
X13679274Y6125334D01*
X11687177Y3670297D02*
G01*
X11560202Y3797272D01*
X11560202Y5604431D01*
X11596423Y5640651D01*
X11433177Y3670297D02*
G01*
X11306177Y3797297D01*
X11306177Y5941692D01*
X11596601Y6232116D01*
X11179177Y3670297D02*
G01*
X11052177Y3797297D01*
X11052177Y6279029D01*
X11596728Y6823580D01*
X10925177Y3670297D02*
G01*
X11043668Y3551806D01*
X12007573Y3551806D01*
X12068177Y3612410D01*
X12068177Y3712791D01*
X12143767Y3788382D01*
X12240262Y3788382D01*
X12314506Y3862626D01*
X12314506Y6243546D01*
X11566857Y6991195D01*
X11566857Y7415044D01*
X10671177Y3670297D02*
G01*
X10798025Y3797145D01*
X10798025Y7326246D01*
X11544277Y8072498D01*
X10300362Y3670297D02*
G01*
X10298254Y3672405D01*
X10298254Y7298814D01*
X11597413Y8597973D01*
X10417177Y3670297D02*
G01*
X10300362Y3670297D01*
X9493252Y3670297D02*
G01*
X9366252Y3797297D01*
X9366252Y5385457D01*
X9528583Y5547789D01*
X9239252Y3670297D02*
G01*
X9118145Y3549190D01*
X8929651Y3549190D01*
X8858252Y3620589D01*
X8858252Y6064222D01*
X9114233Y6320203D01*
X8985252Y3670297D02*
G01*
X9112252Y3797297D01*
X9112252Y6235367D01*
X9515426Y6638541D01*
X9515426Y6823580D01*
X10219133Y3657089D02*
G01*
X10219133Y7228278D01*
X10032367Y7415044D01*
X9158277Y8145726D02*
G01*
X8344943Y7332393D01*
X8344943Y3802606D01*
X8477252Y3670297D01*
X8340067Y3670297D02*
G01*
X8340067Y3611902D01*
X8402754Y3549215D01*
X8532853Y3549215D01*
X8604252Y3620615D01*
X8604252Y7389365D01*
X9480831Y8265944D01*
X9480831Y8597973D01*
X8223252Y3670297D02*
G01*
X8340067Y3670297D01*
X7299327Y3670297D02*
G01*
X7172352Y3797272D01*
X7172352Y5601332D01*
X7215278Y5644258D01*
X7045327Y3670297D02*
G01*
X7163818Y3551806D01*
X7619723Y3551806D01*
X7680327Y3612410D01*
X7680327Y3712791D01*
X7755917Y3788382D01*
X7841084Y3788382D01*
X7941947Y3889245D01*
X7941947Y5726503D01*
X7430899Y6237551D01*
X6791327Y3670297D02*
G01*
X6918327Y3797297D01*
X6918327Y6214056D01*
X7209919Y6505648D01*
X7209919Y6830819D01*
X7156655Y7409279D02*
G01*
X7151347Y7403970D01*
X7151347Y6573288D01*
X6664175Y6086116D01*
X6664175Y3797145D01*
X6537327Y3670297D01*
X6283327Y3670297D02*
G01*
X6410327Y3797297D01*
X6410327Y6062037D01*
X7027268Y6678978D01*
X7027268Y7679585D01*
X7257620Y7909938D01*
X6146142Y3670297D02*
G01*
X6156327Y3680482D01*
X6156327Y7554389D01*
X7212611Y8610673D01*
X6029327Y3670297D02*
G01*
X6146142Y3670297D01*
X5105402Y3670297D02*
G01*
X5237076Y3538623D01*
X5403319Y3538623D01*
X5486402Y3621707D01*
X5486402Y4859779D01*
X4743427Y5602754D01*
X4851402Y3670297D02*
G01*
X4724453Y3797246D01*
X4724453Y4752921D01*
X4577031Y4900343D01*
X4577031Y6148931D01*
X4675380Y6247279D01*
X4597402Y3670297D02*
G01*
X4471189Y3796510D01*
X4471189Y6688173D01*
X4491992Y6708975D01*
X4170072Y7291473D02*
G01*
X4170072Y5730593D01*
X3953868Y5514388D01*
X3953868Y3621656D01*
X4031312Y3544211D01*
X4217316Y3544211D01*
X4343402Y3670297D01*
X4089402Y3670297D02*
G01*
X4216250Y3797145D01*
X4216250Y7254796D01*
X4459759Y7498306D01*
X4459759Y7995612D01*
X2858289Y5946543D02*
G01*
X2858289Y7102421D01*
X4213760Y8457892D01*
X4213760Y8476866D01*
X3835402Y3670297D02*
G01*
X4008655Y3497044D01*
X5618228Y3497044D01*
X5733341Y3612156D01*
X5733341Y7254034D01*
X4995166Y7992209D01*
X5346702Y9156697D02*
G01*
X4976446Y9156697D01*
X2948485Y7128736D01*
X2948485Y4929883D01*
X1633806Y3615204D01*
X5359402Y3670297D02*
G01*
X5223487Y3806212D01*
X5053992Y3806212D01*
X4978402Y3881803D01*
X4978402Y4595898D01*
X4636391Y4937909D01*
X3122246Y4635218D02*
G01*
X3122246Y6317180D01*
X3433625Y6628559D01*
D11*
G01*
X8166100Y9156700D03*
D12*
G01*
X8420100Y9156700D03*
G01*
X8674100Y9156700D03*
G01*
X8928100Y9156700D03*
D11*
G01*
X6743700Y9156700D03*
D12*
G01*
X6997700Y9156700D03*
G01*
X7251700Y9156700D03*
G01*
X7505700Y9156700D03*
D11*
G01*
X5346700Y9156700D03*
D12*
G01*
X5600700Y9156700D03*
G01*
X5854700Y9156700D03*
G01*
X6108700Y9156700D03*
D13*
G01*
X6029325Y3670300D03*
D14*
G01*
X6029325Y3924300D03*
G01*
X6283325Y3670300D03*
G01*
X6283325Y3924300D03*
G01*
X6537325Y3670300D03*
G01*
X6537325Y3924300D03*
G01*
X6791325Y3670300D03*
G01*
X6791325Y3924300D03*
G01*
X7045325Y3670300D03*
G01*
X7045325Y3924300D03*
G01*
X7299325Y3670300D03*
G01*
X7299325Y3924300D03*
G01*
X7553325Y3670300D03*
G01*
X7553325Y3924300D03*
G01*
X7807325Y3670300D03*
G01*
X7807325Y3924300D03*
D13*
G01*
X8223250Y3670300D03*
D14*
G01*
X8223250Y3924300D03*
G01*
X8477250Y3670300D03*
G01*
X8477250Y3924300D03*
G01*
X8731250Y3670300D03*
G01*
X8731250Y3924300D03*
G01*
X8985250Y3670300D03*
G01*
X8985250Y3924300D03*
G01*
X9239250Y3670300D03*
G01*
X9239250Y3924300D03*
G01*
X9493250Y3670300D03*
G01*
X9493250Y3924300D03*
G01*
X9747250Y3670300D03*
G01*
X9747250Y3924300D03*
G01*
X10001250Y3670300D03*
G01*
X10001250Y3924300D03*
D13*
G01*
X10417175Y3670300D03*
D14*
G01*
X10417175Y3924300D03*
G01*
X10671175Y3670300D03*
G01*
X10671175Y3924300D03*
G01*
X10925175Y3670300D03*
G01*
X10925175Y3924300D03*
G01*
X11179175Y3670300D03*
G01*
X11179175Y3924300D03*
G01*
X11433175Y3670300D03*
G01*
X11433175Y3924300D03*
G01*
X11687175Y3670300D03*
G01*
X11687175Y3924300D03*
G01*
X11941175Y3670300D03*
G01*
X11941175Y3924300D03*
G01*
X12195175Y3670300D03*
G01*
X12195175Y3924300D03*
D13*
G01*
X12611100Y3670300D03*
D14*
G01*
X12611100Y3924300D03*
G01*
X12865100Y3670300D03*
G01*
X12865100Y3924300D03*
G01*
X13119100Y3670300D03*
G01*
X13119100Y3924300D03*
G01*
X13373100Y3670300D03*
G01*
X13373100Y3924300D03*
G01*
X13627100Y3670300D03*
G01*
X13627100Y3924300D03*
G01*
X13881100Y3670300D03*
G01*
X13881100Y3924300D03*
G01*
X14135100Y3670300D03*
G01*
X14135100Y3924300D03*
G01*
X14389100Y3670300D03*
G01*
X14389100Y3924300D03*
D13*
G01*
X3835400Y3670300D03*
D14*
G01*
X3835400Y3924300D03*
G01*
X4089400Y3670300D03*
G01*
X4089400Y3924300D03*
G01*
X4343400Y3670300D03*
G01*
X4343400Y3924300D03*
G01*
X4597400Y3670300D03*
G01*
X4597400Y3924300D03*
G01*
X4851400Y3670300D03*
G01*
X4851400Y3924300D03*
G01*
X5105400Y3670300D03*
G01*
X5105400Y3924300D03*
G01*
X5359400Y3670300D03*
G01*
X5359400Y3924300D03*
G01*
X5613400Y3670300D03*
G01*
X5613400Y3924300D03*
D15*
G01*
X3433625Y6628559D03*
G01*
X3122246Y4635218D03*
G01*
X4636391Y4937909D03*
G01*
X1633806Y3615204D03*
G01*
X4995166Y7992209D03*
G01*
X4213760Y8476866D03*
G01*
X2858289Y5946543D03*
G01*
X4459759Y7995612D03*
G01*
X4170072Y7291473D03*
G01*
X4491992Y6708975D03*
G01*
X4675380Y6247279D03*
G01*
X4743427Y5602754D03*
G01*
X7212611Y8610673D03*
G01*
X7257620Y7909938D03*
G01*
X7156655Y7409279D03*
G01*
X7209919Y6830819D03*
G01*
X7430899Y6237551D03*
G01*
X7215278Y5644258D03*
G01*
X9480831Y8597973D03*
G01*
X9158277Y8145726D03*
G01*
X10219133Y3657089D03*
G01*
X10032367Y7415044D03*
G01*
X9515426Y6823580D03*
G01*
X9114233Y6320203D03*
G01*
X9528583Y5547789D03*
G01*
X11597413Y8597973D03*
G01*
X11544277Y8072498D03*
G01*
X11566857Y7415044D03*
G01*
X11596728Y6823580D03*
G01*
X11596601Y6232116D03*
G01*
X11596423Y5640651D03*
G01*
X13679274Y6125334D03*
G01*
X13679274Y6714055D03*
G01*
X12955602Y7155787D03*
G01*
X13516129Y8006509D03*
G01*
X12498961Y8686060D03*
G01*
X4989807Y8083699D03*
G01*
X7322441Y6954644D03*
G01*
X9700592Y7232901D03*
G01*
X11692765Y7083295D03*
G01*
X6803392Y6542097D03*
G01*
X7263183Y6413192D03*
G01*
X3209673Y7537193D03*
G01*
X5778197Y7683192D03*
G01*
X4123870Y7971355D03*
G01*
X3985262Y5739127D03*
G01*
X3514702Y7469934D03*
G01*
X3215744Y5251523D03*
G01*
X7434506Y5050990D03*
G01*
X9621446Y4939738D03*
G01*
X11811027Y5049161D03*
G01*
X13679274Y5533692D03*
G01*
X3804465Y7831477D03*
G01*
X3356002Y4289117D03*
M02*
