G04 Layer: TopSolderMaskLayer*
G04 EasyEDA v6.5.40, 2025-03-18 22:52:05*
G04 b39658bcca46432a934d06cf3c5ad792,51c3989a86a440af9e0a32d2c4c87c08,10*
G04 Gerber Generator version 0.2*
G04 Scale: 100 percent, Rotated: No, Reflected: No *
G04 Dimensions in millimeters *
G04 leading zeros omitted , absolute positions ,4 integer and 5 decimal *
%FSLAX45Y45*%
%MOMM*%

%AMMACRO1*1,1,$1,$2,$3*1,1,$1,$4,$5*1,1,$1,0-$2,0-$3*1,1,$1,0-$4,0-$5*20,1,$1,$2,$3,$4,$5,0*20,1,$1,$4,$5,0-$2,0-$3,0*20,1,$1,0-$2,0-$3,0-$4,0-$5,0*20,1,$1,0-$4,0-$5,$2,$3,0*4,1,4,$2,$3,$4,$5,0-$2,0-$3,0-$4,0-$5,$2,$3,0*%
%ADD10MACRO1,0.1016X-0.85X0.85X0.85X0.85*%
%ADD11C,1.8016*%
%ADD12MACRO1,0.1016X0.889X-0.9X-0.889X-0.9*%
%ADD13C,1.9016*%
%ADD14MACRO1,0.1016X-0.6X0.6X0.6X0.6*%
%ADD15MACRO1,0.1016X0.75X-0.6X-0.75X-0.6*%

%LPD*%
D10*
G01*
X8166100Y9156700D03*
D11*
G01*
X8420100Y9156700D03*
G01*
X8674100Y9156700D03*
G01*
X8928100Y9156700D03*
D10*
G01*
X6743700Y9156700D03*
D11*
G01*
X6997700Y9156700D03*
G01*
X7251700Y9156700D03*
G01*
X7505700Y9156700D03*
D10*
G01*
X5346700Y9156700D03*
D11*
G01*
X5600700Y9156700D03*
G01*
X5854700Y9156700D03*
G01*
X6108700Y9156700D03*
D12*
G01*
X6029325Y3670300D03*
D13*
G01*
X6029325Y3924300D03*
G01*
X6283325Y3670300D03*
G01*
X6283325Y3924300D03*
G01*
X6537325Y3670300D03*
G01*
X6537325Y3924300D03*
G01*
X6791325Y3670300D03*
G01*
X6791325Y3924300D03*
G01*
X7045325Y3670300D03*
G01*
X7045325Y3924300D03*
G01*
X7299325Y3670300D03*
G01*
X7299325Y3924300D03*
G01*
X7553325Y3670300D03*
G01*
X7553325Y3924300D03*
G01*
X7807325Y3670300D03*
G01*
X7807325Y3924300D03*
D12*
G01*
X8223250Y3670300D03*
D13*
G01*
X8223250Y3924300D03*
G01*
X8477250Y3670300D03*
G01*
X8477250Y3924300D03*
G01*
X8731250Y3670300D03*
G01*
X8731250Y3924300D03*
G01*
X8985250Y3670300D03*
G01*
X8985250Y3924300D03*
G01*
X9239250Y3670300D03*
G01*
X9239250Y3924300D03*
G01*
X9493250Y3670300D03*
G01*
X9493250Y3924300D03*
G01*
X9747250Y3670300D03*
G01*
X9747250Y3924300D03*
G01*
X10001250Y3670300D03*
G01*
X10001250Y3924300D03*
D12*
G01*
X10417175Y3670300D03*
D13*
G01*
X10417175Y3924300D03*
G01*
X10671175Y3670300D03*
G01*
X10671175Y3924300D03*
G01*
X10925175Y3670300D03*
G01*
X10925175Y3924300D03*
G01*
X11179175Y3670300D03*
G01*
X11179175Y3924300D03*
G01*
X11433175Y3670300D03*
G01*
X11433175Y3924300D03*
G01*
X11687175Y3670300D03*
G01*
X11687175Y3924300D03*
G01*
X11941175Y3670300D03*
G01*
X11941175Y3924300D03*
G01*
X12195175Y3670300D03*
G01*
X12195175Y3924300D03*
D12*
G01*
X12611100Y3670300D03*
D13*
G01*
X12611100Y3924300D03*
G01*
X12865100Y3670300D03*
G01*
X12865100Y3924300D03*
G01*
X13119100Y3670300D03*
G01*
X13119100Y3924300D03*
G01*
X13373100Y3670300D03*
G01*
X13373100Y3924300D03*
G01*
X13627100Y3670300D03*
G01*
X13627100Y3924300D03*
G01*
X13881100Y3670300D03*
G01*
X13881100Y3924300D03*
G01*
X14135100Y3670300D03*
G01*
X14135100Y3924300D03*
G01*
X14389100Y3670300D03*
G01*
X14389100Y3924300D03*
D12*
G01*
X3835400Y3670300D03*
D13*
G01*
X3835400Y3924300D03*
G01*
X4089400Y3670300D03*
G01*
X4089400Y3924300D03*
G01*
X4343400Y3670300D03*
G01*
X4343400Y3924300D03*
G01*
X4597400Y3670300D03*
G01*
X4597400Y3924300D03*
G01*
X4851400Y3670300D03*
G01*
X4851400Y3924300D03*
G01*
X5105400Y3670300D03*
G01*
X5105400Y3924300D03*
G01*
X5359400Y3670300D03*
G01*
X5359400Y3924300D03*
G01*
X5613400Y3670300D03*
G01*
X5613400Y3924300D03*
D14*
G01*
X4566836Y8585281D03*
G01*
X4246836Y8585281D03*
G01*
X4566836Y7995627D03*
G01*
X4246836Y7995627D03*
G01*
X4566836Y7405974D03*
G01*
X4246836Y7405974D03*
G01*
X4566836Y6816321D03*
G01*
X4246836Y6816321D03*
G01*
X4566836Y6226667D03*
G01*
X4246836Y6226667D03*
G01*
X4566836Y5637014D03*
G01*
X4246836Y5637014D03*
G01*
X4566836Y5047361D03*
G01*
X4246836Y5047361D03*
G01*
X4554199Y4457705D03*
G01*
X4234200Y4457705D03*
G01*
X7322797Y8610681D03*
G01*
X7002797Y8610681D03*
G01*
X7322797Y8017400D03*
G01*
X7002797Y8017400D03*
G01*
X7322797Y7424112D03*
G01*
X7002797Y7424112D03*
G01*
X7322797Y6830832D03*
G01*
X7002797Y6830832D03*
G01*
X7322797Y6237551D03*
G01*
X7002797Y6237551D03*
G01*
X7322797Y5644268D03*
G01*
X7002797Y5644268D03*
G01*
X7322797Y5050988D03*
G01*
X7002797Y5050988D03*
G01*
X7322799Y4457705D03*
G01*
X7002800Y4457705D03*
G01*
X9621436Y8597981D03*
G01*
X9301436Y8597981D03*
G01*
X9621436Y8006514D03*
G01*
X9301436Y8006514D03*
G01*
X9621436Y7415044D03*
G01*
X9301436Y7415044D03*
G01*
X9621436Y6823577D03*
G01*
X9301436Y6823577D03*
G01*
X9621436Y6232110D03*
G01*
X9301436Y6232110D03*
G01*
X9621436Y5640644D03*
G01*
X9301436Y5640644D03*
G01*
X9621436Y5049172D03*
G01*
X9301436Y5049172D03*
G01*
X9621438Y4457705D03*
G01*
X9301439Y4457705D03*
G01*
X11704266Y8597981D03*
G01*
X11384267Y8597981D03*
G01*
X11704266Y8006511D03*
G01*
X11384267Y8006511D03*
G01*
X11704266Y7415042D03*
G01*
X11384267Y7415042D03*
G01*
X11704266Y6823572D03*
G01*
X11384267Y6823572D03*
G01*
X11704266Y6232108D03*
G01*
X11384267Y6232108D03*
G01*
X11704266Y5640646D03*
G01*
X11384267Y5640646D03*
G01*
X11704266Y5049177D03*
G01*
X11384267Y5049177D03*
G01*
X11704261Y4457705D03*
G01*
X11384262Y4457705D03*
G01*
X13672774Y8597981D03*
G01*
X13352774Y8597981D03*
G01*
X13672774Y8006509D03*
G01*
X13352774Y8006509D03*
G01*
X13672774Y7415044D03*
G01*
X13352774Y7415044D03*
G01*
X13672774Y6823572D03*
G01*
X13352774Y6823572D03*
G01*
X13672774Y6232108D03*
G01*
X13352774Y6232108D03*
G01*
X13672774Y5640636D03*
G01*
X13352774Y5640636D03*
G01*
X13672774Y5049172D03*
G01*
X13352774Y5049172D03*
G01*
X13672769Y4457705D03*
G01*
X13352769Y4457705D03*
D15*
G01*
X3243098Y3619210D03*
G01*
X3243098Y3873210D03*
G01*
X3243101Y4127210D03*
G01*
X3243101Y4381207D03*
G01*
X3243101Y4635207D03*
G01*
X3243101Y4889207D03*
G01*
X3243101Y5143207D03*
G01*
X3243101Y5397207D03*
G01*
X3243101Y5651205D03*
G01*
X3243101Y5905205D03*
G01*
X3243101Y6159205D03*
G01*
X3243101Y6413205D03*
G01*
X3243101Y6667205D03*
G01*
X3243101Y6921202D03*
G01*
X3243101Y7175202D03*
G01*
X3243101Y7429202D03*
G01*
X3243101Y7683202D03*
G01*
X3243101Y7937202D03*
G01*
X3243101Y8191200D03*
G01*
X3243101Y8445200D03*
G01*
X1073104Y8441199D03*
G01*
X1073104Y8187199D03*
G01*
X1073104Y7933202D03*
G01*
X1073104Y7679202D03*
G01*
X1073104Y7425202D03*
G01*
X1073104Y7171202D03*
G01*
X1073104Y6917202D03*
G01*
X1073104Y6663204D03*
G01*
X1073104Y6409204D03*
G01*
X1073104Y6155204D03*
G01*
X1073104Y5901204D03*
G01*
X1073104Y5647204D03*
G01*
X1073104Y5393207D03*
G01*
X1073104Y5139207D03*
G01*
X1073104Y4885207D03*
G01*
X1073104Y4631207D03*
G01*
X1073104Y4377207D03*
G01*
X1073104Y4123209D03*
G01*
X1073104Y3869209D03*
G01*
X1073104Y3615209D03*
M02*
